<svg xmlns="http://www.w3.org/2000/svg" width="150.33mm" height="45.48mm" viewBox="0 0 426.13 128.92"><defs><style>.a{fill:#fff;}.b{fill:#ff3800;}</style></defs><polygon class="a" points="258.3 80.35 259.26 75.84 254.81 75.84 253.85 80.35 258.3 80.35"/><polygon class="a" points="263.75 75.79 264.71 71.27 260.26 71.27 259.3 75.79 263.75 75.79"/><polygon class="a" points="261.74 84.87 262.69 80.35 258.24 80.35 257.29 84.87 261.74 84.87"/><polygon class="a" points="256.51 89.39 257.47 84.87 253.02 84.87 252.06 89.39 256.51 89.39"/><polygon class="a" points="259.91 93.91 260.87 89.39 256.42 89.39 255.46 93.91 259.91 93.91"/><polygon class="a" points="254.54 98.33 255.49 93.81 251.04 93.81 250.09 98.33 254.54 98.33"/><polygon class="a" points="257.97 102.84 258.93 98.32 254.48 98.32 253.52 102.84 257.97 102.84"/><path class="b" d="M218.5,107.34c-.06,0-.11.08-.16.17l-1.05,1.72h1.6l-.32-1.72C218.55,107.42,218.55,107.34,218.5,107.34Z"/><path class="b" d="M205,102.84a3,3,0,0,0-2.89,2.33l-2,9.37h48.61a2.93,2.93,0,0,0,2.88-2.34l2-9.36Zm8.82,5.16c-.14,1-.54,1.74-1.62,1.74h-.39v0l1.35,1.74H211.5l-1-1.41a1.36,1.36,0,0,1-.33-.7.81.81,0,0,1,0-.19c.08-.41.4-.49.9-.49h.46c.52,0,.69-.26.8-.8a1.47,1.47,0,0,0,0-.33c0-.31-.16-.42-.57-.42h-1.29c-.27,0-.38.1-.44.37l-.85,4h-1.39l1-4.58a.9.9,0,0,1,1-.84h2.74c.9,0,1.26.5,1.26,1.36C213.83,107.59,213.81,107.82,213.79,108Zm5.44,3.52-.22-1.24h-2.28l-.75,1.24h-1.53l3-4.85a1.2,1.2,0,0,1,1.2-.63c.49,0,.82.11.93.63l1,4.85Zm8.15-4.34h-1.55c-1.24,0-1.65.31-1.93,1.63a4.09,4.09,0,0,0-.1.75c0,.69.39.87,1.34.87h1.63l-.23,1.09h-2.16c-1.44,0-2-.73-2-1.88a4.54,4.54,0,0,1,.11-1c.36-1.7,1-2.55,2.9-2.55h2.23Zm2.39,4.34h-1.39l1.15-5.42h1.39Zm7.81-.81a1,1,0,0,1-1.17.87.87.87,0,0,1-.93-.5l-1.35-3.18c0-.09-.09-.13-.13-.13s-.09,0-.12.16l-.77,3.59h-1.25l1-4.63a1.07,1.07,0,0,1,1.21-.85.89.89,0,0,1,.9.46l1.37,3.21c0,.06,0,.13.1.13s.11-.09.12-.13l.77-3.61h1.25Zm7.75-3.53h-2.22c-1.08,0-1.5.35-1.78,1.63a4,4,0,0,0-.09.75c0,.67.36.87,1.19.87H243a.37.37,0,0,0,.44-.36l.28-1.31h1.4l-.41,1.93a.9.9,0,0,1-1,.83h-1.91c-1.43,0-2-.73-2-1.88a5.19,5.19,0,0,1,.1-1c.33-1.71.92-2.55,2.89-2.55h2.76Z"/><path class="b" d="M260.25,70l.35-1.67a.61.61,0,0,0-.6-.74H234.63a1.43,1.43,0,0,0-1.4,1.13L233,70Z"/><path class="a" d="M98.54,83.23a20,20,0,0,1-.45,4.5c-2,9.44-5.24,10.93-14.14,10.93-7.15,0-10.32-2.14-10.32-7.73a20.6,20.6,0,0,1,.45-4.5c2-9.41,5.24-10.93,14.14-10.93C95.37,75.5,98.54,77.63,98.54,83.23Zm-19,7.15c0,2.78,1.43,3.75,5,3.75,4.72,0,6.47-1.71,7.6-7a15.13,15.13,0,0,0,.42-3.27c0-2.78-1.46-3.78-5-3.78-4.72,0-6.43,1.71-7.57,7A15.53,15.53,0,0,0,79.58,90.38Z"/><path class="a" d="M115.3,98.4c-6,0-8.38-3-8.38-7.83a19.72,19.72,0,0,1,.45-4.14c1.49-7.12,4.17-10.67,12.1-10.67h9.35l-1,4.52h-6.47c-5.18,0-6.92,1.3-8.09,6.8a16.31,16.31,0,0,0-.42,3.14c0,2.87,1.65,3.65,5.63,3.65h6.79l-1,4.53Z"/><path class="a" d="M140.69,98.4l3.84-18.12h-8.41l1-4.52h22.65l-1,4.52h-8.41L146.51,98.4Z"/><path class="a" d="M171.28,78.15c1.13-1.78,2.23-2.65,5-2.65,2,0,3.43.45,3.88,2.65l4.17,20.25h-5.79l-.94-5.18h-9.54l-3.14,5.18h-6.37Zm-.84,10.67h6.7l-1.36-7.18c-.07-.35-.07-.71-.29-.71s-.46.36-.65.71Z"/><path class="a" d="M216.5,95c-.39,1.87-1.59,3.62-4.89,3.62-1.55,0-3.1-.23-3.88-2.07l-5.66-13.3c-.2-.39-.36-.55-.52-.55s-.39.07-.52.65l-3.2,15h-5.24l4.11-19.34c.58-2.79,2.65-3.56,5-3.56,1.62,0,3.11.42,3.76,1.94l5.72,13.42c.1.23.17.55.46.55s.45-.39.48-.55l3.2-15.1h5.24Z"/><path class="a" d="M249.38,80.15H237.74c-1.14,0-1.59.39-1.85,1.53l-.64,3.13h12.87L247.21,89H234.34l-.74,3.46a3.93,3.93,0,0,0-.07.61c0,.68.36.91,1.26.91h11.78l-.94,4.4H229.94c-1.78,0-2.78-1-2.78-2.52a4.49,4.49,0,0,1,.1-.94l3.33-15.69c.52-2.43,1.74-3.49,4.17-3.49h15.56Z"/><path class="b" d="M338,80.28c-4.72,0-6.43,1.72-7.57,7.06a15.53,15.53,0,0,0-.42,3.3c0,2.78,1.43,3.75,5,3.75,4.72,0,6.46-1.72,7.6-7a15.13,15.13,0,0,0,.42-3.27C343,81.29,341.58,80.28,338,80.28Z"/><path class="b" d="M264.49,71.27l-6.68,31.57h87.34A7.37,7.37,0,0,0,352.36,97l5.45-25.72Zm25.08,9.14H277.92c-1.13,0-1.58.39-1.84,1.52l-.65,3.14h12.88l-.91,4.21H274.53l-.75,3.46a5.41,5.41,0,0,0-.06.61c0,.68.35.91,1.26.91h11.78l-.94,4.4H270.13c-1.78,0-2.78-1-2.78-2.52a5.15,5.15,0,0,1,.09-.94l3.34-15.69c.51-2.43,1.74-3.5,4.17-3.5h15.56Zm20.14,15.47a5.65,5.65,0,0,1-5.31,3c-2.91,0-3.72-1.43-4-3L296.57,76h5.89l2.46,16.83c0,.29.16.48.35.48s.36-.19.55-.48L315.59,76H322ZM348.54,88c-2,9.45-5.24,10.94-14.14,10.94-7.15,0-10.32-2.14-10.32-7.73a20.55,20.55,0,0,1,.45-4.5c2-9.41,5.25-10.93,14.14-10.93,7.15,0,10.32,2.13,10.32,7.73A19.87,19.87,0,0,1,348.54,88Z"/><path class="a" d="M56.63,123.57c-5.53-.3-11.05-.69-16.58-1l-16.57-1.18-.5,0-.12-.53q-1.72-7.27-3.31-14.6c-1.05-4.87-2.06-9.75-3.08-14.64l-.1-.47.29-.38,1.87-2.46,0,1.33-2.4-2.81L16,86.54l-.06-.28c-1.26-6.75-2.49-13.5-3.59-20.29-.27-1.7-.53-3.39-.73-5.14a11.37,11.37,0,0,1,.56-5.57,10.8,10.8,0,0,1,3.27-4.65,12.06,12.06,0,0,1,5-2.41c13.45-3.11,26.82-5.87,40.25-8.74Q101,30.94,141.28,22.7c3.36-.66,6.74-1.38,10.14-1.92s6.8-1.05,10.21-1.51c6.81-.91,13.64-1.68,20.49-2.26,13.69-1.14,27.52-1.69,41.28-.11a85,85,0,0,1,20.19,4.81c6.46,2.47,12.75,5.13,19.1,7.75L300.62,45.4h0l-.44-.08L310.81,45H311l.12,0q16.89,4.17,33.72,8.59c11.21,3,22.41,6,33.53,9.32,2.79.82,5.56,1.7,8.33,2.57l4.15,1.37A30.37,30.37,0,0,1,395,68.54,54.74,54.74,0,0,1,409.24,79a37.23,37.23,0,0,1,5.49,7,23.65,23.65,0,0,1,1.94,4.1c.5,1.43.9,2.79,1.34,4.19,1.69,5.58,3.19,11.19,4.51,16.87h0l.15.68-.57.39-5.42,3.66.39-1,1.76,7.43.26,1.08H418l-42.46.19L418,121.64l-.82,1.08-1.94-7.38-.17-.63.55-.39,5.33-3.79-.42,1.08h0c-1.3-5.6-2.8-11.2-4.47-16.72-.43-1.36-.85-2.78-1.31-4.09A21.38,21.38,0,0,0,413,87a35.45,35.45,0,0,0-5.19-6.63,52.51,52.51,0,0,0-13.69-10,26.9,26.9,0,0,0-3.92-1.56L386,67.49c-2.76-.87-5.51-1.74-8.29-2.55-11.09-3.32-22.27-6.34-33.47-9.31s-22.44-5.81-33.68-8.58l.27,0h0l-10.63.31H300l-.21-.09h0L261.89,31.37c-6.32-2.6-12.67-5.29-19-7.71A83.14,83.14,0,0,0,223.16,19c-13.52-1.52-27.25-.95-40.85.21-6.81.59-13.61,1.37-20.39,2.29-3.38.46-6.77,1-10.13,1.53s-6.7,1.25-10.07,1.92C114.87,30.4,88,36.09,61.22,41.77l-20.11,4.3c-6.68,1.46-13.45,2.84-20,4.37a9.77,9.77,0,0,0-4.18,1.94A8.37,8.37,0,0,0,14.31,56a9.32,9.32,0,0,0-.52,2.22,9.65,9.65,0,0,0,.05,2.33c.19,1.66.44,3.35.7,5C15.6,72.38,16.8,79.13,18,85.86l-.24-.49,2.39,2.82.55.65-.52.67L18.34,92l.19-.85c1,4.88,2,9.77,3,14.66s1.88,9.8,2.75,14.72l-.63-.56,16.51,1.75C45.63,122.32,51.13,122.9,56.63,123.57Z"/><polygon class="a" points="17.82 87.51 56.88 88.55 17.82 89.58 17.82 87.51"/><path class="a" d="M416.22,115.64A91.89,91.89,0,0,1,394,112.7a95,95,0,0,1-10.68-3.47c-1.74-.67-3.46-1.41-5.16-2.18a20.55,20.55,0,0,1-4.8-2.92,54.84,54.84,0,0,1,5.19,2c1.7.72,3.42,1.41,5.16,2a93.89,93.89,0,0,0,10.63,3.15,89,89,0,0,0,10.88,2,99.1,99.1,0,0,0,11,.83h0a.74.74,0,0,1,0,1.47Z"/><path class="a" d="M49.7,32a2.3,2.3,0,0,1-.37,0l-34-3.23a4.58,4.58,0,0,1-3.89-2.67L5.57,11.17a3.43,3.43,0,0,1,.67-3.64A5.09,5.09,0,0,1,11.3,6.1L42.73,14a4.61,4.61,0,0,1,2.83,2l7,11.88a2.51,2.51,0,0,1,0,2.69A3.38,3.38,0,0,1,49.7,32ZM10,8a2.9,2.9,0,0,0-2.16.9,1.4,1.4,0,0,0-.31,1.51l5.89,14.93a2.5,2.5,0,0,0,2.16,1.37l34,3.23a1.33,1.33,0,0,0,1.29-.5.46.46,0,0,0,0-.52L43.78,17a2.46,2.46,0,0,0-1.55-1L10.8,8.11A3.13,3.13,0,0,0,10,8Z"/><rect class="a" x="45.58" y="30.39" width="2.07" height="13.21" transform="translate(-11.78 25.55) rotate(-27.35)"/><rect class="a" x="23.66" y="27.81" width="2.07" height="19.6" transform="translate(-13.09 13.19) rotate(-23.84)"/><path class="a" d="M42.75,79.45c.59-.11,1.18-.2,1.77-.28l.89-.12a1.87,1.87,0,0,0,.71-.18,1.4,1.4,0,0,0,.52-.33,1.51,1.51,0,0,0,.18-.26L47,77.9l.75-1.6,3-6.42,3-6.41.76-1.6.38-.8c.08-.18.08-.17.07-.2s0,0,0-.08a.14.14,0,0,0-.06-.1l0,0h-.11l-.22,0-.89-.13q-.88-.11-1.77-.27L53.68,60l.89-.12.22,0,.11,0h.19a1.1,1.1,0,0,1,.69.33,1,1,0,0,1,.28.74,1.65,1.65,0,0,1-.18.64l-.38.8-.76,1.6-3,6.42-3,6.41-.76,1.6-.2.42a2.21,2.21,0,0,1-.33.47,2,2,0,0,1-.95.63,2.56,2.56,0,0,1-1,0l-.89-.12C43.93,79.65,43.34,79.56,42.75,79.45Z"/><path class="a" d="M51.35,79.45c.59-.08,1.19-.15,1.78-.21l.88-.09a2.21,2.21,0,0,0,.76-.16,1.52,1.52,0,0,0,.57-.37,2.61,2.61,0,0,0,.38-.66l.75-1.61,3-6.41,3-6.41.76-1.61.38-.8c.08-.16.1-.19.09-.25a.44.44,0,0,0-.06-.16.27.27,0,0,0-.13-.13,2.51,2.51,0,0,0-.39,0l-.89-.09q-.89-.09-1.77-.21l1.77-.2.89-.09a2.33,2.33,0,0,1,.5,0,1,1,0,0,1,.62.3,1,1,0,0,1,.24.66,1.21,1.21,0,0,1-.17.58l-.38.8-.75,1.61-3,6.41-3,6.41-.76,1.61a3.33,3.33,0,0,1-.51.86,2,2,0,0,1-.9.58,2.61,2.61,0,0,1-1,0l-.88-.09C52.54,79.6,51.94,79.53,51.35,79.45Z"/><path class="a" d="M34.15,79.45c.59-.16,1.18-.3,1.78-.43l.88-.18a1.21,1.21,0,0,0,.63-.22c.14-.08.31-.12.41-.26a1.43,1.43,0,0,0,.14-.2l.18-.37.75-1.6,3-6.42,3-6.41.76-1.6.38-.8c.09-.21,0-.12,0-.09s0,.08,0,.09a.14.14,0,0,0,.11,0v0l-.11,0L46,60.83l-.89-.18q-.88-.19-1.77-.42c.59-.15,1.18-.29,1.77-.41l.89-.18.22,0,.11,0h.23a1.34,1.34,0,0,1,.85.39,1.26,1.26,0,0,1,.34.91,1.74,1.74,0,0,1-.21.75l-.38.8L46.38,64l-3,6.42-3,6.41-.76,1.6-.21.43a2.75,2.75,0,0,1-.36.53,2.44,2.44,0,0,1-1.06.7,2.7,2.7,0,0,1-1.13,0l-.88-.18C35.33,79.75,34.74,79.61,34.15,79.45Z"/><path class="a" d="M25.55,79.45c.6-.21,1.19-.4,1.78-.57.29-.09.59-.16.88-.24a1.83,1.83,0,0,0,.39-.12,1.17,1.17,0,0,0,.16-.15c.09-.08.23-.07.3-.18a1.3,1.3,0,0,0,.1-.15l.17-.36.76-1.6,3-6.42,3-6.41.76-1.6.38-.8s.09-.21,0-.12a.58.58,0,0,0,0,.14.25.25,0,0,0,.1.26.34.34,0,0,0,.26,0s0,0,0,0l-.11,0L37.37,61c-.29-.08-.59-.15-.88-.24-.59-.17-1.19-.35-1.78-.56.59-.2,1.19-.38,1.78-.55.29-.09.59-.16.88-.24l.22-.06.12,0a1.11,1.11,0,0,1,.26,0,1.58,1.58,0,0,1,1,.46,1.39,1.39,0,0,1,.4,1.06,1.86,1.86,0,0,1-.1.58c-.09.23-.09.19-.13.29l-.38.8L38,64.13l-3,6.42L32,77l-.75,1.6L31,79a2.64,2.64,0,0,1-.41.58,2.56,2.56,0,0,1-1.17.77,2.07,2.07,0,0,1-.7,0,2.33,2.33,0,0,1-.51-.11c-.29-.08-.59-.15-.88-.24C26.74,79.85,26.15,79.66,25.55,79.45Z"/></svg>